<svg width="156" height="140" viewBox="0 0 156 140" fill="none" xmlns="http://www.w3.org/2000/svg">
<g clip-path="url(#clip0_1026_167)">
<path d="M100.569 33.5506L106.337 27.5841H81.4463L87.2192 33.5423V46.027H68.1133V33.5423L73.8863 27.5841H49.0527L54.8216 33.5588V69.6747L49.0527 75.6371H73.8863L68.1133 69.6459V57.1735H87.2192V69.6335L81.4463 75.6371H106.337L100.569 69.6747V33.5506Z" fill="#004C23"/>
<path d="M100.517 22.6841H82.5723L95.8805 8.9353C98.7752 12.7565 100.5 17.5206 100.517 22.6841Z" fill="#A2270B"/>
<path d="M92.1027 5.01529L80.248 17.2612V0C84.7198 0.510588 88.7963 2.31 92.1027 5.01529Z" fill="#A2270B"/>
<path d="M74.896 0.00817871V17.2611L63.0742 5.04406C66.3725 2.33877 70.4366 0.53112 74.896 0.00817871Z" fill="#A2270B"/>
<path d="M59.3066 8.97644L72.5778 22.6841H54.7031C54.7155 17.537 56.4284 12.7935 59.3066 8.97644Z" fill="#A2270B"/>
<path d="M83.1305 35.1071L77.5964 29.573L72.0664 35.1071V42.3295H83.1305V35.1071Z" fill="#A2270B"/>
<path d="M83.1305 60.9205H72.0664V68.1429L77.5964 73.6729L83.1305 68.1429V60.9205Z" fill="#A2270B"/>
<path d="M22.7376 97.5265V112.799C22.7376 115.821 23.8124 117.666 24.8047 118.316V118.387H15.54V118.316C16.4171 117.666 17.4918 115.788 17.4918 112.799V106.099H7.30882V112.647C7.30882 115.821 8.34235 117.666 9.26059 118.316V118.387H0V118.316C0.955294 117.666 2.06706 115.788 2.06706 112.647V97.5265C2.06706 94.3518 0.996471 92.5112 0 91.8647V91.7865H9.26471V91.8647C8.38353 92.5153 7.31294 94.3889 7.31294 97.5265V102.274H17.4959V97.5265C17.4959 94.3518 16.4624 92.5112 15.5441 91.8647V91.7865H24.8088V91.8647C23.8494 92.5153 22.7376 94.3889 22.7376 97.5265Z" fill="#004C23"/>
<path d="M54.5927 118.316V118.386H45.9415V118.316C46.5921 117.814 46.8968 116.245 45.9415 113.602L45.6945 113.021H35.5815L35.3757 113.602C34.3792 116.245 34.7621 117.814 35.2974 118.316V118.386H27.2598V118.316C28.2933 117.394 29.9404 115.055 30.9739 112.111L36.4462 96.3406C37.2121 94.08 36.4833 92.47 35.7586 91.8606V91.7823H45.9045V91.8606C45.1798 92.5112 44.4098 94.08 45.2168 96.3406L50.8457 112.111C51.8751 115.059 53.5221 117.427 54.5927 118.316ZM38.4021 104.872L36.8457 109.27H44.4304L42.9192 104.872C42.0421 102.389 41.0827 99.8241 40.6998 96.8759H40.5474C40.2015 99.8241 39.2792 102.389 38.4021 104.872Z" fill="#004C23"/>
<path d="M108.829 118.316V118.386H100.178V118.316C100.829 117.814 101.133 116.245 100.178 113.602L99.9269 113.021H89.814L89.6081 113.602C88.6116 116.245 88.9945 117.814 89.5298 118.316V118.386H81.4922V118.316C82.5257 117.394 84.1728 115.055 85.2063 112.111L90.6787 96.3406C91.4445 94.08 90.7157 92.47 89.991 91.8606V91.7823H100.137V91.8606C99.4122 92.5112 98.6463 94.08 99.4493 96.3406L105.078 112.111C106.112 115.059 107.759 117.427 108.829 118.316ZM92.6387 104.872L91.0822 109.27H98.6669L97.1557 104.872C96.2787 102.389 95.3192 99.8241 94.9363 96.8759H94.784C94.4381 99.8241 93.5157 102.389 92.6387 104.872Z" fill="#004C23"/>
<path d="M80.8711 117.695V117.781L73.0228 119.194C72.5246 117.691 71.9152 116.356 71.0711 114.94L65.1375 104.798H66.974C70.2681 104.798 72.1046 103.456 72.1046 100.046C72.1046 97.2588 70.2681 95.4923 66.974 95.5335L64.2934 95.5665V112.795C64.2934 115.817 65.364 117.662 66.2081 118.312V118.382H56.9805V118.312C57.9769 117.662 59.0475 115.784 59.0475 112.642V97.37C59.0475 94.3476 57.9769 92.5112 56.9805 91.8606V91.7823H67.8552C73.9781 91.7823 77.5399 94.8829 77.5399 99.8612C77.5399 103.917 75.5511 106.404 72.3311 107.442L75.8928 113.227C77.3505 115.558 79.0346 117.085 80.8711 117.695Z" fill="#004C23"/>
<path d="M129.974 98.4858L129.899 98.5187C129.018 96.9952 127.219 95.6899 124.921 95.6899H122.051V112.338C122.051 115.636 123.126 117.666 124.386 118.321V118.391H114.471V118.321C115.582 117.67 116.805 115.599 116.805 112.338V95.6899H113.894C111.597 95.6899 109.797 96.9952 108.916 98.5187L108.842 98.4858L109.492 91.4817C111.255 91.7123 112.861 91.7864 114.738 91.7864H124.077C125.951 91.7864 127.561 91.7082 129.323 91.4817L129.974 98.4858Z" fill="#004C23"/>
<path d="M137.949 117.427L137.299 110.999L137.377 110.966C139.675 113.948 142.162 115.059 145.304 114.985C148.404 114.907 149.742 113.602 149.742 111.535C149.742 108.895 147.408 107.903 144.805 106.828C141.474 105.457 137.76 103.88 137.76 98.5682C137.76 94.7759 141.013 91.2882 146.946 91.2882C148.935 91.2882 150.739 91.5188 152.958 92.0953L153.456 98.3706H153.378C151.731 95.8423 149.549 95.2329 147.329 95.2329C144.422 95.2329 142.928 96.2253 142.928 98.1812C142.928 100.405 145.073 101.286 147.56 102.315C150.969 103.736 155.025 105.42 155.025 111.164C155.025 115.414 151.888 118.893 145.686 118.971C142.582 119.004 139.671 118.469 137.949 117.427Z" fill="#004C23"/>
<path d="M132.655 98.4406C132.667 98.6135 132.675 99.5112 132.684 99.6676L135.228 99.1859C135.228 99.1818 135.228 98.4406 135.228 98.4406L135.533 93.8906C135.611 92.9353 135.685 92.3218 135.842 91.7823H132C132.152 92.3218 132.231 92.9312 132.305 93.8906L132.655 98.4406Z" fill="#A2270B"/>
<path d="M1.98047 139.881V129.274H3.64812V139.881H1.98047Z" fill="#A2270B"/>
<path d="M22.7244 139.881L21.3367 135.528H20.3979V139.881H18.7344V129.274H21.415C23.3503 129.274 24.1244 130.216 24.1244 132.399C24.1244 133.712 23.8567 134.651 22.8891 135.17L24.4661 139.881H22.7244ZM21.4273 130.772H20.3979V134.021H21.4273C22.3208 134.021 22.4567 133.28 22.4567 132.399C22.4567 131.526 22.3208 130.772 21.4273 130.772Z" fill="#A2270B"/>
<path d="M39.5625 139.881V129.274H41.2301V139.881H39.5625Z" fill="#A2270B"/>
<path d="M61.1182 139.284C60.6859 139.695 59.9859 139.979 59.047 139.979C58.1247 139.979 57.437 139.724 56.9923 139.284C56.4859 138.777 56.3047 138.122 56.3047 137.002H57.9723C57.9723 137.571 58.0341 137.929 58.2729 138.196C58.4212 138.361 58.6764 138.472 59.047 138.472C59.4341 138.472 59.6894 138.374 59.8541 138.18C60.0765 137.925 60.1341 137.566 60.1341 136.998C60.1341 135.866 59.957 135.59 59.1376 135.261L57.8735 134.738C56.8029 134.289 56.3994 133.708 56.3994 132.069C56.3994 131.122 56.6835 130.344 57.2641 129.825C57.7253 129.418 58.3223 129.183 59.08 129.183C59.9282 129.183 60.5541 129.401 60.9865 129.825C61.5382 130.361 61.7317 131.122 61.7317 132.131H60.0641C60.0641 131.658 60.0353 131.283 59.8129 131.003C59.6647 130.809 59.4217 130.686 59.0676 130.686C58.7259 130.686 58.5159 130.805 58.3512 130.982C58.1576 131.205 58.067 131.563 58.067 132.028C58.067 132.893 58.1988 133.156 58.9441 133.461L60.1959 133.968C61.46 134.491 61.8059 135.154 61.8059 136.949C61.8059 138.028 61.6535 138.765 61.1182 139.284Z" fill="#A2270B"/>
<path d="M80.6353 139.881V135.24H78.5641V139.881H76.8965V129.274H78.5641V133.741H80.6353V129.274H82.3029V139.881H80.6353Z" fill="#A2270B"/>
<path d="M109.793 135.722H108.793V139.881H107.125V129.274H109.789C111.712 129.274 112.515 130.291 112.515 132.506C112.519 134.721 111.712 135.722 109.793 135.722ZM109.731 130.772H108.793V134.219H109.731C110.625 134.219 110.847 133.581 110.847 132.506C110.847 131.435 110.625 130.772 109.731 130.772Z" fill="#A2270B"/>
<path d="M132.295 139.226C131.789 139.745 131.117 140 130.327 140C129.536 140 128.853 139.745 128.346 139.226C127.885 138.748 127.613 138.077 127.613 137.274V129.274H129.285V137.365C129.285 138.122 129.759 138.501 130.327 138.501C130.891 138.501 131.356 138.127 131.356 137.365V129.274H133.024V137.274C133.02 138.077 132.756 138.748 132.295 139.226Z" fill="#A2270B"/>
<path d="M152.826 139.205C152.382 139.658 151.739 139.881 150.743 139.881H148.104V129.274H150.755C151.739 129.274 152.382 129.484 152.81 129.924C153.3 130.422 153.481 130.954 153.481 132.106C153.481 132.856 153.362 133.445 152.868 133.947C152.719 134.099 152.538 134.235 152.316 134.322C152.538 134.429 152.748 134.565 152.896 134.709C153.391 135.215 153.51 135.858 153.51 136.842C153.514 138.094 153.333 138.682 152.826 139.205ZM150.607 130.772H149.771V133.651H150.607C151.472 133.651 151.814 133.218 151.814 132.205C151.814 131.168 151.472 130.772 150.607 130.772ZM150.578 135.067H149.775V138.378H150.578C151.472 138.378 151.846 137.958 151.846 136.722C151.842 135.545 151.472 135.067 150.578 135.067Z" fill="#A2270B"/>
</g>
<defs>
<clipPath id="clip0_1026_167">
<rect width="155.021" height="140" fill="white"/>
</clipPath>
</defs>
</svg>
